<mxfile host="Electron" modified="2024-06-23T18:46:57.567Z" agent="Mozilla/5.0 (Windows NT 10.0; Win64; x64) AppleWebKit/537.36 (KHTML, like Gecko) draw.io/21.6.8 Chrome/114.0.5735.289 Electron/25.5.0 Safari/537.36" etag="2LwhNB91pzgmGrWbnGvV" version="21.6.8" type="device">
  <diagram name="Page-1" id="GHmQzCoPF6uC2-2MfS-E">
    <mxGraphModel dx="3319" dy="1589" grid="1" gridSize="10" guides="1" tooltips="1" connect="1" arrows="1" fold="1" page="1" pageScale="1" pageWidth="850" pageHeight="1100" math="0" shadow="0">
      <root>
        <mxCell id="0" />
        <mxCell id="1" parent="0" />
        <mxCell id="4eCl8P-VBhG6pIe4pRi_-1" value="" style="group" vertex="1" connectable="0" parent="1">
          <mxGeometry x="-650" y="150" width="1350" height="970" as="geometry" />
        </mxCell>
        <mxCell id="vJWKNZolBrSju2JjRTu4-1" value="&lt;font style=&quot;font-size: 21px;&quot;&gt;Login&lt;/font&gt;" style="rounded=0;whiteSpace=wrap;html=1;fontSize=21;" parent="4eCl8P-VBhG6pIe4pRi_-1" vertex="1">
          <mxGeometry x="114.08450704225352" y="93.7609841827768" width="91.26760563380282" height="51.14235500878734" as="geometry" />
        </mxCell>
        <mxCell id="vJWKNZolBrSju2JjRTu4-2" value="" style="endArrow=none;html=1;rounded=0;exitX=0;exitY=0.5;exitDx=0;exitDy=0;fontSize=21;" parent="4eCl8P-VBhG6pIe4pRi_-1" source="vJWKNZolBrSju2JjRTu4-1" target="vJWKNZolBrSju2JjRTu4-3" edge="1">
          <mxGeometry width="50" height="50" relative="1" as="geometry">
            <mxPoint x="365.07042253521126" y="136.37961335676624" as="sourcePoint" />
            <mxPoint x="403.09859154929575" y="93.7609841827768" as="targetPoint" />
          </mxGeometry>
        </mxCell>
        <mxCell id="vJWKNZolBrSju2JjRTu4-3" value="&lt;font style=&quot;font-size: 21px;&quot;&gt;username&lt;/font&gt;" style="ellipse;whiteSpace=wrap;html=1;fontSize=21;" parent="4eCl8P-VBhG6pIe4pRi_-1" vertex="1">
          <mxGeometry y="59.666080843585235" width="91.26760563380282" height="68.18980667838312" as="geometry" />
        </mxCell>
        <mxCell id="vJWKNZolBrSju2JjRTu4-4" value="&lt;font style=&quot;font-size: 21px;&quot;&gt;date&lt;/font&gt;" style="ellipse;whiteSpace=wrap;html=1;fontSize=21;" parent="4eCl8P-VBhG6pIe4pRi_-1" vertex="1">
          <mxGeometry x="76.05633802816901" width="91.26760563380282" height="68.18980667838312" as="geometry" />
        </mxCell>
        <mxCell id="vJWKNZolBrSju2JjRTu4-6" value="" style="endArrow=none;html=1;rounded=0;entryX=0.25;entryY=0;entryDx=0;entryDy=0;exitX=0.5;exitY=1;exitDx=0;exitDy=0;fontSize=21;" parent="4eCl8P-VBhG6pIe4pRi_-1" source="vJWKNZolBrSju2JjRTu4-4" target="vJWKNZolBrSju2JjRTu4-1" edge="1">
          <mxGeometry width="50" height="50" relative="1" as="geometry">
            <mxPoint x="365.07042253521126" y="136.37961335676624" as="sourcePoint" />
            <mxPoint x="403.09859154929575" y="93.7609841827768" as="targetPoint" />
          </mxGeometry>
        </mxCell>
        <mxCell id="vJWKNZolBrSju2JjRTu4-7" value="&lt;font style=&quot;font-size: 21px;&quot;&gt;password&lt;/font&gt;" style="ellipse;whiteSpace=wrap;html=1;fontSize=21;" parent="4eCl8P-VBhG6pIe4pRi_-1" vertex="1">
          <mxGeometry x="167.32394366197184" y="178.9982425307557" width="91.26760563380282" height="68.18980667838312" as="geometry" />
        </mxCell>
        <mxCell id="vJWKNZolBrSju2JjRTu4-8" value="" style="endArrow=none;html=1;rounded=0;entryX=0.5;entryY=1;entryDx=0;entryDy=0;exitX=0.5;exitY=0;exitDx=0;exitDy=0;fontSize=21;" parent="4eCl8P-VBhG6pIe4pRi_-1" source="vJWKNZolBrSju2JjRTu4-7" target="vJWKNZolBrSju2JjRTu4-1" edge="1">
          <mxGeometry width="50" height="50" relative="1" as="geometry">
            <mxPoint x="258.59154929577466" y="153.42706502636204" as="sourcePoint" />
            <mxPoint x="296.61971830985914" y="110.80843585237258" as="targetPoint" />
          </mxGeometry>
        </mxCell>
        <mxCell id="vJWKNZolBrSju2JjRTu4-9" value="&lt;font style=&quot;font-size: 21px;&quot;&gt;email&lt;/font&gt;" style="ellipse;whiteSpace=wrap;html=1;fontSize=21;" parent="4eCl8P-VBhG6pIe4pRi_-1" vertex="1">
          <mxGeometry x="76.05633802816901" y="187.5219683655536" width="91.26760563380282" height="68.18980667838312" as="geometry" />
        </mxCell>
        <mxCell id="vJWKNZolBrSju2JjRTu4-11" value="" style="endArrow=none;html=1;rounded=0;exitX=0.5;exitY=0;exitDx=0;exitDy=0;entryX=0.5;entryY=1;entryDx=0;entryDy=0;fontSize=21;" parent="4eCl8P-VBhG6pIe4pRi_-1" source="vJWKNZolBrSju2JjRTu4-9" target="vJWKNZolBrSju2JjRTu4-1" edge="1">
          <mxGeometry width="50" height="50" relative="1" as="geometry">
            <mxPoint x="235.77464788732394" y="136.37961335676624" as="sourcePoint" />
            <mxPoint x="273.80281690140845" y="93.7609841827768" as="targetPoint" />
          </mxGeometry>
        </mxCell>
        <mxCell id="vJWKNZolBrSju2JjRTu4-12" value="&lt;u style=&quot;font-size: 21px;&quot;&gt;&lt;font style=&quot;font-size: 21px;&quot;&gt;id&lt;/font&gt;&lt;/u&gt;" style="ellipse;whiteSpace=wrap;html=1;fontSize=21;" parent="4eCl8P-VBhG6pIe4pRi_-1" vertex="1">
          <mxGeometry y="136.37961335676624" width="91.26760563380282" height="68.18980667838312" as="geometry" />
        </mxCell>
        <mxCell id="vJWKNZolBrSju2JjRTu4-14" value="" style="endArrow=none;html=1;rounded=0;exitX=1;exitY=0;exitDx=0;exitDy=0;entryX=0;entryY=0.75;entryDx=0;entryDy=0;fontSize=21;" parent="4eCl8P-VBhG6pIe4pRi_-1" source="vJWKNZolBrSju2JjRTu4-12" target="vJWKNZolBrSju2JjRTu4-1" edge="1">
          <mxGeometry width="50" height="50" relative="1" as="geometry">
            <mxPoint x="76.05633802816901" y="136.37961335676624" as="sourcePoint" />
            <mxPoint x="114.08450704225352" y="93.7609841827768" as="targetPoint" />
          </mxGeometry>
        </mxCell>
        <mxCell id="vJWKNZolBrSju2JjRTu4-15" value="account" style="rounded=0;whiteSpace=wrap;html=1;fontSize=21;" parent="4eCl8P-VBhG6pIe4pRi_-1" vertex="1">
          <mxGeometry x="973.5211267605633" y="136.37961335676624" width="91.26760563380282" height="51.14235500878734" as="geometry" />
        </mxCell>
        <mxCell id="vJWKNZolBrSju2JjRTu4-16" value="" style="endArrow=none;html=1;rounded=0;exitX=1;exitY=0.5;exitDx=0;exitDy=0;fontSize=21;" parent="4eCl8P-VBhG6pIe4pRi_-1" source="vJWKNZolBrSju2JjRTu4-15" target="vJWKNZolBrSju2JjRTu4-17" edge="1">
          <mxGeometry width="50" height="50" relative="1" as="geometry">
            <mxPoint x="1224.5070422535211" y="178.9982425307557" as="sourcePoint" />
            <mxPoint x="1262.5352112676055" y="136.37961335676624" as="targetPoint" />
          </mxGeometry>
        </mxCell>
        <mxCell id="vJWKNZolBrSju2JjRTu4-17" value="username" style="ellipse;whiteSpace=wrap;html=1;fontSize=21;" parent="4eCl8P-VBhG6pIe4pRi_-1" vertex="1">
          <mxGeometry x="1072.394366197183" y="59.666080843585235" width="91.26760563380282" height="68.18980667838312" as="geometry" />
        </mxCell>
        <mxCell id="vJWKNZolBrSju2JjRTu4-18" value="date" style="ellipse;whiteSpace=wrap;html=1;fontSize=21;" parent="4eCl8P-VBhG6pIe4pRi_-1" vertex="1">
          <mxGeometry x="1156.056338028169" y="127.85588752196836" width="91.26760563380282" height="68.18980667838312" as="geometry" />
        </mxCell>
        <mxCell id="vJWKNZolBrSju2JjRTu4-19" value="" style="endArrow=none;html=1;rounded=0;entryX=1.004;entryY=0.824;entryDx=0;entryDy=0;exitX=0;exitY=0.5;exitDx=0;exitDy=0;entryPerimeter=0;fontSize=21;" parent="4eCl8P-VBhG6pIe4pRi_-1" source="vJWKNZolBrSju2JjRTu4-18" target="vJWKNZolBrSju2JjRTu4-15" edge="1">
          <mxGeometry width="50" height="50" relative="1" as="geometry">
            <mxPoint x="1224.5070422535211" y="178.9982425307557" as="sourcePoint" />
            <mxPoint x="1262.5352112676055" y="136.37961335676624" as="targetPoint" />
          </mxGeometry>
        </mxCell>
        <mxCell id="vJWKNZolBrSju2JjRTu4-20" value="password" style="ellipse;whiteSpace=wrap;html=1;fontSize=21;" parent="4eCl8P-VBhG6pIe4pRi_-1" vertex="1">
          <mxGeometry x="1148.4507042253522" y="204.56942003514936" width="91.26760563380282" height="68.18980667838312" as="geometry" />
        </mxCell>
        <mxCell id="vJWKNZolBrSju2JjRTu4-21" value="" style="endArrow=none;html=1;rounded=0;entryX=0.877;entryY=1.014;entryDx=0;entryDy=0;entryPerimeter=0;exitX=0.5;exitY=0;exitDx=0;exitDy=0;fontSize=21;" parent="4eCl8P-VBhG6pIe4pRi_-1" source="vJWKNZolBrSju2JjRTu4-20" target="vJWKNZolBrSju2JjRTu4-15" edge="1">
          <mxGeometry width="50" height="50" relative="1" as="geometry">
            <mxPoint x="1118.0281690140846" y="196.04569420035148" as="sourcePoint" />
            <mxPoint x="1156.056338028169" y="153.42706502636204" as="targetPoint" />
          </mxGeometry>
        </mxCell>
        <mxCell id="vJWKNZolBrSju2JjRTu4-22" value="uid" style="ellipse;whiteSpace=wrap;html=1;fontSize=21;" parent="4eCl8P-VBhG6pIe4pRi_-1" vertex="1">
          <mxGeometry x="1057.1830985915492" y="213.09314586994728" width="91.26760563380282" height="68.18980667838312" as="geometry" />
        </mxCell>
        <mxCell id="vJWKNZolBrSju2JjRTu4-23" value="" style="endArrow=none;html=1;rounded=0;exitX=0.5;exitY=0;exitDx=0;exitDy=0;entryX=0.5;entryY=1;entryDx=0;entryDy=0;fontSize=21;" parent="4eCl8P-VBhG6pIe4pRi_-1" source="vJWKNZolBrSju2JjRTu4-22" target="vJWKNZolBrSju2JjRTu4-15" edge="1">
          <mxGeometry width="50" height="50" relative="1" as="geometry">
            <mxPoint x="1095.2112676056338" y="178.9982425307557" as="sourcePoint" />
            <mxPoint x="1133.2394366197184" y="136.37961335676624" as="targetPoint" />
          </mxGeometry>
        </mxCell>
        <mxCell id="vJWKNZolBrSju2JjRTu4-24" value="&lt;u style=&quot;font-size: 21px;&quot;&gt;id&lt;/u&gt;" style="ellipse;whiteSpace=wrap;html=1;fontSize=21;" parent="4eCl8P-VBhG6pIe4pRi_-1" vertex="1">
          <mxGeometry x="882.2535211267606" y="204.56942003514936" width="91.26760563380282" height="68.18980667838312" as="geometry" />
        </mxCell>
        <mxCell id="vJWKNZolBrSju2JjRTu4-25" value="" style="endArrow=none;html=1;rounded=0;exitX=1;exitY=0;exitDx=0;exitDy=0;entryX=0.25;entryY=1;entryDx=0;entryDy=0;fontSize=21;" parent="4eCl8P-VBhG6pIe4pRi_-1" source="vJWKNZolBrSju2JjRTu4-24" target="vJWKNZolBrSju2JjRTu4-15" edge="1">
          <mxGeometry width="50" height="50" relative="1" as="geometry">
            <mxPoint x="935.4929577464789" y="178.9982425307557" as="sourcePoint" />
            <mxPoint x="973.5211267605633" y="136.37961335676624" as="targetPoint" />
          </mxGeometry>
        </mxCell>
        <mxCell id="vJWKNZolBrSju2JjRTu4-26" value="" style="endArrow=none;html=1;rounded=0;exitX=0.5;exitY=0;exitDx=0;exitDy=0;fontSize=21;" parent="4eCl8P-VBhG6pIe4pRi_-1" source="vJWKNZolBrSju2JjRTu4-15" target="vJWKNZolBrSju2JjRTu4-27" edge="1">
          <mxGeometry width="50" height="50" relative="1" as="geometry">
            <mxPoint x="920.2816901408451" y="76.71353251318102" as="sourcePoint" />
            <mxPoint x="1118.0281690140846" y="51.14235500878734" as="targetPoint" />
          </mxGeometry>
        </mxCell>
        <mxCell id="vJWKNZolBrSju2JjRTu4-27" value="ppic" style="ellipse;whiteSpace=wrap;html=1;fontSize=21;" parent="4eCl8P-VBhG6pIe4pRi_-1" vertex="1">
          <mxGeometry x="981.1267605633802" y="17.04745166959578" width="91.26760563380282" height="68.18980667838312" as="geometry" />
        </mxCell>
        <mxCell id="vJWKNZolBrSju2JjRTu4-28" value="" style="endArrow=none;html=1;rounded=0;exitX=0;exitY=0;exitDx=0;exitDy=0;fontSize=21;" parent="4eCl8P-VBhG6pIe4pRi_-1" source="vJWKNZolBrSju2JjRTu4-15" target="vJWKNZolBrSju2JjRTu4-29" edge="1">
          <mxGeometry width="50" height="50" relative="1" as="geometry">
            <mxPoint x="920.2816901408451" y="144.90333919156413" as="sourcePoint" />
            <mxPoint x="1019.1549295774647" y="59.666080843585235" as="targetPoint" />
          </mxGeometry>
        </mxCell>
        <mxCell id="vJWKNZolBrSju2JjRTu4-29" value="bip" style="ellipse;whiteSpace=wrap;html=1;fontSize=21;" parent="4eCl8P-VBhG6pIe4pRi_-1" vertex="1">
          <mxGeometry x="882.2535211267606" y="25.57117750439367" width="91.26760563380282" height="68.18980667838312" as="geometry" />
        </mxCell>
        <mxCell id="vJWKNZolBrSju2JjRTu4-32" value="Comment" style="rounded=0;whiteSpace=wrap;html=1;fontSize=21;" parent="4eCl8P-VBhG6pIe4pRi_-1" vertex="1">
          <mxGeometry x="121.69014084507042" y="400.61511423550087" width="91.26760563380282" height="51.14235500878734" as="geometry" />
        </mxCell>
        <mxCell id="vJWKNZolBrSju2JjRTu4-33" value="" style="endArrow=none;html=1;rounded=0;exitX=0;exitY=0.25;exitDx=0;exitDy=0;fontSize=21;" parent="4eCl8P-VBhG6pIe4pRi_-1" source="vJWKNZolBrSju2JjRTu4-32" target="vJWKNZolBrSju2JjRTu4-34" edge="1">
          <mxGeometry width="50" height="50" relative="1" as="geometry">
            <mxPoint x="372.67605633802816" y="443.23374340949033" as="sourcePoint" />
            <mxPoint x="410.70422535211264" y="400.61511423550087" as="targetPoint" />
          </mxGeometry>
        </mxCell>
        <mxCell id="vJWKNZolBrSju2JjRTu4-34" value="date" style="ellipse;whiteSpace=wrap;html=1;fontSize=21;" parent="4eCl8P-VBhG6pIe4pRi_-1" vertex="1">
          <mxGeometry y="375.0439367311072" width="91.26760563380282" height="68.18980667838312" as="geometry" />
        </mxCell>
        <mxCell id="vJWKNZolBrSju2JjRTu4-35" value="comment" style="ellipse;whiteSpace=wrap;html=1;fontSize=21;" parent="4eCl8P-VBhG6pIe4pRi_-1" vertex="1">
          <mxGeometry x="38.028169014084504" y="298.3304042179262" width="91.26760563380282" height="68.18980667838312" as="geometry" />
        </mxCell>
        <mxCell id="vJWKNZolBrSju2JjRTu4-36" value="" style="endArrow=none;html=1;rounded=0;entryX=0.597;entryY=-0.01;entryDx=0;entryDy=0;exitX=1;exitY=1;exitDx=0;exitDy=0;entryPerimeter=0;fontSize=21;" parent="4eCl8P-VBhG6pIe4pRi_-1" source="vJWKNZolBrSju2JjRTu4-35" target="vJWKNZolBrSju2JjRTu4-32" edge="1">
          <mxGeometry width="50" height="50" relative="1" as="geometry">
            <mxPoint x="372.67605633802816" y="443.23374340949033" as="sourcePoint" />
            <mxPoint x="410.70422535211264" y="400.61511423550087" as="targetPoint" />
          </mxGeometry>
        </mxCell>
        <mxCell id="vJWKNZolBrSju2JjRTu4-37" value="uid" style="ellipse;whiteSpace=wrap;html=1;fontSize=21;" parent="4eCl8P-VBhG6pIe4pRi_-1" vertex="1">
          <mxGeometry x="212.95774647887325" y="477.3286467486819" width="91.26760563380282" height="68.18980667838312" as="geometry" />
        </mxCell>
        <mxCell id="vJWKNZolBrSju2JjRTu4-38" value="" style="endArrow=none;html=1;rounded=0;entryX=0.877;entryY=1.014;entryDx=0;entryDy=0;entryPerimeter=0;exitX=0.5;exitY=0;exitDx=0;exitDy=0;fontSize=21;" parent="4eCl8P-VBhG6pIe4pRi_-1" source="vJWKNZolBrSju2JjRTu4-37" target="vJWKNZolBrSju2JjRTu4-32" edge="1">
          <mxGeometry width="50" height="50" relative="1" as="geometry">
            <mxPoint x="266.19718309859155" y="460.2811950790861" as="sourcePoint" />
            <mxPoint x="304.22535211267603" y="417.66256590509664" as="targetPoint" />
          </mxGeometry>
        </mxCell>
        <mxCell id="vJWKNZolBrSju2JjRTu4-39" value="pid&lt;br style=&quot;font-size: 21px;&quot;&gt;" style="ellipse;whiteSpace=wrap;html=1;fontSize=21;" parent="4eCl8P-VBhG6pIe4pRi_-1" vertex="1">
          <mxGeometry x="121.69014084507042" y="494.37609841827765" width="91.26760563380282" height="68.18980667838312" as="geometry" />
        </mxCell>
        <mxCell id="vJWKNZolBrSju2JjRTu4-40" value="" style="endArrow=none;html=1;rounded=0;exitX=0.5;exitY=0;exitDx=0;exitDy=0;entryX=0.5;entryY=1;entryDx=0;entryDy=0;fontSize=21;" parent="4eCl8P-VBhG6pIe4pRi_-1" source="vJWKNZolBrSju2JjRTu4-39" target="vJWKNZolBrSju2JjRTu4-32" edge="1">
          <mxGeometry width="50" height="50" relative="1" as="geometry">
            <mxPoint x="243.38028169014083" y="443.23374340949033" as="sourcePoint" />
            <mxPoint x="281.40845070422534" y="400.61511423550087" as="targetPoint" />
          </mxGeometry>
        </mxCell>
        <mxCell id="vJWKNZolBrSju2JjRTu4-41" value="&lt;u style=&quot;font-size: 21px;&quot;&gt;id&lt;/u&gt;" style="ellipse;whiteSpace=wrap;html=1;fontSize=21;" parent="4eCl8P-VBhG6pIe4pRi_-1" vertex="1">
          <mxGeometry x="30.422535211267604" y="468.80492091388396" width="91.26760563380282" height="68.18980667838312" as="geometry" />
        </mxCell>
        <mxCell id="vJWKNZolBrSju2JjRTu4-42" value="" style="endArrow=none;html=1;rounded=0;exitX=1;exitY=0;exitDx=0;exitDy=0;entryX=0.25;entryY=1;entryDx=0;entryDy=0;fontSize=21;" parent="4eCl8P-VBhG6pIe4pRi_-1" source="vJWKNZolBrSju2JjRTu4-41" target="vJWKNZolBrSju2JjRTu4-32" edge="1">
          <mxGeometry width="50" height="50" relative="1" as="geometry">
            <mxPoint x="83.66197183098592" y="443.23374340949033" as="sourcePoint" />
            <mxPoint x="121.69014084507042" y="400.61511423550087" as="targetPoint" />
          </mxGeometry>
        </mxCell>
        <mxCell id="vJWKNZolBrSju2JjRTu4-43" value="follower" style="rounded=0;whiteSpace=wrap;html=1;fontSize=21;" parent="4eCl8P-VBhG6pIe4pRi_-1" vertex="1">
          <mxGeometry x="1080" y="484.1476274165202" width="91.26760563380282" height="51.14235500878734" as="geometry" />
        </mxCell>
        <mxCell id="vJWKNZolBrSju2JjRTu4-46" value="date" style="ellipse;whiteSpace=wrap;html=1;fontSize=21;" parent="4eCl8P-VBhG6pIe4pRi_-1" vertex="1">
          <mxGeometry x="1258.7323943661972" y="545.518453427065" width="91.26760563380282" height="68.18980667838312" as="geometry" />
        </mxCell>
        <mxCell id="vJWKNZolBrSju2JjRTu4-47" value="" style="endArrow=none;html=1;rounded=0;entryX=1.004;entryY=0.824;entryDx=0;entryDy=0;exitX=0;exitY=0.5;exitDx=0;exitDy=0;entryPerimeter=0;fontSize=21;" parent="4eCl8P-VBhG6pIe4pRi_-1" source="vJWKNZolBrSju2JjRTu4-46" target="vJWKNZolBrSju2JjRTu4-43" edge="1">
          <mxGeometry width="50" height="50" relative="1" as="geometry">
            <mxPoint x="1642.8169014084506" y="400.61511423550087" as="sourcePoint" />
            <mxPoint x="1680.8450704225352" y="357.9964850615114" as="targetPoint" />
          </mxGeometry>
        </mxCell>
        <mxCell id="vJWKNZolBrSju2JjRTu4-48" value="reciver" style="ellipse;whiteSpace=wrap;html=1;fontSize=21;" parent="4eCl8P-VBhG6pIe4pRi_-1" vertex="1">
          <mxGeometry x="1216.9014084507041" y="622.231985940246" width="91.26760563380282" height="68.18980667838312" as="geometry" />
        </mxCell>
        <mxCell id="vJWKNZolBrSju2JjRTu4-49" value="" style="endArrow=none;html=1;rounded=0;entryX=0.877;entryY=1.014;entryDx=0;entryDy=0;entryPerimeter=0;exitX=0.5;exitY=0;exitDx=0;exitDy=0;fontSize=21;" parent="4eCl8P-VBhG6pIe4pRi_-1" source="vJWKNZolBrSju2JjRTu4-48" target="vJWKNZolBrSju2JjRTu4-43" edge="1">
          <mxGeometry width="50" height="50" relative="1" as="geometry">
            <mxPoint x="1536.338028169014" y="417.66256590509664" as="sourcePoint" />
            <mxPoint x="1574.3661971830986" y="375.0439367311072" as="targetPoint" />
          </mxGeometry>
        </mxCell>
        <mxCell id="vJWKNZolBrSju2JjRTu4-50" value="sender" style="ellipse;whiteSpace=wrap;html=1;fontSize=21;" parent="4eCl8P-VBhG6pIe4pRi_-1" vertex="1">
          <mxGeometry x="1102.8169014084506" y="605.1845342706503" width="91.26760563380282" height="68.18980667838312" as="geometry" />
        </mxCell>
        <mxCell id="vJWKNZolBrSju2JjRTu4-51" value="" style="endArrow=none;html=1;rounded=0;exitX=0.5;exitY=0;exitDx=0;exitDy=0;entryX=0.5;entryY=1;entryDx=0;entryDy=0;fontSize=21;" parent="4eCl8P-VBhG6pIe4pRi_-1" source="vJWKNZolBrSju2JjRTu4-50" target="vJWKNZolBrSju2JjRTu4-43" edge="1">
          <mxGeometry width="50" height="50" relative="1" as="geometry">
            <mxPoint x="1513.5211267605634" y="400.61511423550087" as="sourcePoint" />
            <mxPoint x="1551.5492957746478" y="357.9964850615114" as="targetPoint" />
          </mxGeometry>
        </mxCell>
        <mxCell id="vJWKNZolBrSju2JjRTu4-52" value="&lt;u style=&quot;font-size: 21px;&quot;&gt;id&lt;/u&gt;" style="ellipse;whiteSpace=wrap;html=1;fontSize=21;" parent="4eCl8P-VBhG6pIe4pRi_-1" vertex="1">
          <mxGeometry x="1011.5492957746478" y="562.5659050966608" width="91.26760563380282" height="68.18980667838312" as="geometry" />
        </mxCell>
        <mxCell id="vJWKNZolBrSju2JjRTu4-53" value="" style="endArrow=none;html=1;rounded=0;exitX=1;exitY=0;exitDx=0;exitDy=0;entryX=0.25;entryY=1;entryDx=0;entryDy=0;fontSize=21;" parent="4eCl8P-VBhG6pIe4pRi_-1" source="vJWKNZolBrSju2JjRTu4-52" target="vJWKNZolBrSju2JjRTu4-43" edge="1">
          <mxGeometry width="50" height="50" relative="1" as="geometry">
            <mxPoint x="1353.8028169014085" y="400.61511423550087" as="sourcePoint" />
            <mxPoint x="1391.8309859154929" y="357.9964850615114" as="targetPoint" />
          </mxGeometry>
        </mxCell>
        <mxCell id="vJWKNZolBrSju2JjRTu4-54" value="likes&lt;br style=&quot;font-size: 21px;&quot;&gt;" style="rounded=0;whiteSpace=wrap;html=1;fontSize=21;" parent="4eCl8P-VBhG6pIe4pRi_-1" vertex="1">
          <mxGeometry x="136.90140845070422" y="792.7065026362038" width="91.26760563380282" height="51.14235500878734" as="geometry" />
        </mxCell>
        <mxCell id="vJWKNZolBrSju2JjRTu4-55" value="date" style="ellipse;whiteSpace=wrap;html=1;fontSize=21;" parent="4eCl8P-VBhG6pIe4pRi_-1" vertex="1">
          <mxGeometry x="266.19718309859155" y="784.1827768014059" width="91.26760563380282" height="68.18980667838312" as="geometry" />
        </mxCell>
        <mxCell id="vJWKNZolBrSju2JjRTu4-56" value="" style="endArrow=none;html=1;rounded=0;entryX=1;entryY=0.5;entryDx=0;entryDy=0;exitX=0;exitY=0.5;exitDx=0;exitDy=0;fontSize=21;" parent="4eCl8P-VBhG6pIe4pRi_-1" source="vJWKNZolBrSju2JjRTu4-55" target="vJWKNZolBrSju2JjRTu4-54" edge="1">
          <mxGeometry width="50" height="50" relative="1" as="geometry">
            <mxPoint x="387.88732394366195" y="835.3251318101933" as="sourcePoint" />
            <mxPoint x="425.9154929577465" y="792.7065026362038" as="targetPoint" />
          </mxGeometry>
        </mxCell>
        <mxCell id="vJWKNZolBrSju2JjRTu4-57" value="uid" style="ellipse;whiteSpace=wrap;html=1;fontSize=21;" parent="4eCl8P-VBhG6pIe4pRi_-1" vertex="1">
          <mxGeometry x="228.16901408450704" y="869.4200351493848" width="91.26760563380282" height="68.18980667838312" as="geometry" />
        </mxCell>
        <mxCell id="vJWKNZolBrSju2JjRTu4-58" value="" style="endArrow=none;html=1;rounded=0;entryX=0.877;entryY=1.014;entryDx=0;entryDy=0;entryPerimeter=0;exitX=0.5;exitY=0;exitDx=0;exitDy=0;fontSize=21;" parent="4eCl8P-VBhG6pIe4pRi_-1" source="vJWKNZolBrSju2JjRTu4-57" target="vJWKNZolBrSju2JjRTu4-54" edge="1">
          <mxGeometry width="50" height="50" relative="1" as="geometry">
            <mxPoint x="281.40845070422534" y="852.3725834797891" as="sourcePoint" />
            <mxPoint x="319.4366197183098" y="809.7539543057997" as="targetPoint" />
          </mxGeometry>
        </mxCell>
        <mxCell id="vJWKNZolBrSju2JjRTu4-59" value="pid" style="ellipse;whiteSpace=wrap;html=1;fontSize=21;" parent="4eCl8P-VBhG6pIe4pRi_-1" vertex="1">
          <mxGeometry x="136.90140845070422" y="886.4674868189807" width="91.26760563380282" height="68.18980667838312" as="geometry" />
        </mxCell>
        <mxCell id="vJWKNZolBrSju2JjRTu4-60" value="" style="endArrow=none;html=1;rounded=0;exitX=0.5;exitY=0;exitDx=0;exitDy=0;entryX=0.5;entryY=1;entryDx=0;entryDy=0;fontSize=21;" parent="4eCl8P-VBhG6pIe4pRi_-1" source="vJWKNZolBrSju2JjRTu4-59" target="vJWKNZolBrSju2JjRTu4-54" edge="1">
          <mxGeometry width="50" height="50" relative="1" as="geometry">
            <mxPoint x="258.59154929577466" y="835.3251318101933" as="sourcePoint" />
            <mxPoint x="296.61971830985914" y="792.7065026362038" as="targetPoint" />
          </mxGeometry>
        </mxCell>
        <mxCell id="vJWKNZolBrSju2JjRTu4-61" value="&lt;u style=&quot;font-size: 21px;&quot;&gt;id&lt;/u&gt;" style="ellipse;whiteSpace=wrap;html=1;fontSize=21;" parent="4eCl8P-VBhG6pIe4pRi_-1" vertex="1">
          <mxGeometry x="45.63380281690141" y="860.8963093145869" width="91.26760563380282" height="68.18980667838312" as="geometry" />
        </mxCell>
        <mxCell id="vJWKNZolBrSju2JjRTu4-62" value="" style="endArrow=none;html=1;rounded=0;exitX=1;exitY=0;exitDx=0;exitDy=0;entryX=0.25;entryY=1;entryDx=0;entryDy=0;fontSize=21;" parent="4eCl8P-VBhG6pIe4pRi_-1" source="vJWKNZolBrSju2JjRTu4-61" target="vJWKNZolBrSju2JjRTu4-54" edge="1">
          <mxGeometry width="50" height="50" relative="1" as="geometry">
            <mxPoint x="98.87323943661971" y="835.3251318101933" as="sourcePoint" />
            <mxPoint x="136.90140845070422" y="792.7065026362038" as="targetPoint" />
          </mxGeometry>
        </mxCell>
        <mxCell id="vJWKNZolBrSju2JjRTu4-64" value="" style="endArrow=none;html=1;rounded=0;entryX=0;entryY=0.5;entryDx=0;entryDy=0;exitX=1;exitY=0.5;exitDx=0;exitDy=0;fontSize=21;" parent="4eCl8P-VBhG6pIe4pRi_-1" source="vJWKNZolBrSju2JjRTu4-66" target="vJWKNZolBrSju2JjRTu4-54" edge="1">
          <mxGeometry width="50" height="50" relative="1" as="geometry">
            <mxPoint x="53.23943661971831" y="835.3251318101933" as="sourcePoint" />
            <mxPoint x="91.26760563380282" y="792.7065026362038" as="targetPoint" />
          </mxGeometry>
        </mxCell>
        <mxCell id="vJWKNZolBrSju2JjRTu4-66" value="likes" style="ellipse;whiteSpace=wrap;html=1;fontSize=21;" parent="4eCl8P-VBhG6pIe4pRi_-1" vertex="1">
          <mxGeometry y="784.1827768014059" width="91.26760563380282" height="68.18980667838312" as="geometry" />
        </mxCell>
        <mxCell id="vJWKNZolBrSju2JjRTu4-67" value="messages" style="rounded=0;whiteSpace=wrap;html=1;fontSize=21;" parent="4eCl8P-VBhG6pIe4pRi_-1" vertex="1">
          <mxGeometry x="860.1971830985915" y="773.9543057996484" width="91.26760563380282" height="51.14235500878734" as="geometry" />
        </mxCell>
        <mxCell id="vJWKNZolBrSju2JjRTu4-68" value="date" style="ellipse;whiteSpace=wrap;html=1;fontSize=21;" parent="4eCl8P-VBhG6pIe4pRi_-1" vertex="1">
          <mxGeometry x="1000.9014084507043" y="799.5254833040422" width="91.26760563380282" height="68.18980667838312" as="geometry" />
        </mxCell>
        <mxCell id="vJWKNZolBrSju2JjRTu4-69" value="" style="endArrow=none;html=1;rounded=0;entryX=1;entryY=0.5;entryDx=0;entryDy=0;exitX=0;exitY=0.5;exitDx=0;exitDy=0;fontSize=21;" parent="4eCl8P-VBhG6pIe4pRi_-1" source="vJWKNZolBrSju2JjRTu4-68" target="vJWKNZolBrSju2JjRTu4-67" edge="1">
          <mxGeometry width="50" height="50" relative="1" as="geometry">
            <mxPoint x="1122.5915492957747" y="850.6678383128295" as="sourcePoint" />
            <mxPoint x="1160.619718309859" y="808.0492091388401" as="targetPoint" />
          </mxGeometry>
        </mxCell>
        <mxCell id="vJWKNZolBrSju2JjRTu4-70" value="messege" style="ellipse;whiteSpace=wrap;html=1;fontSize=21;" parent="4eCl8P-VBhG6pIe4pRi_-1" vertex="1">
          <mxGeometry x="962.8732394366197" y="884.7627416520211" width="91.26760563380282" height="68.18980667838312" as="geometry" />
        </mxCell>
        <mxCell id="vJWKNZolBrSju2JjRTu4-71" value="" style="endArrow=none;html=1;rounded=0;entryX=0.877;entryY=1.014;entryDx=0;entryDy=0;entryPerimeter=0;exitX=0.5;exitY=0;exitDx=0;exitDy=0;fontSize=21;" parent="4eCl8P-VBhG6pIe4pRi_-1" source="vJWKNZolBrSju2JjRTu4-70" target="vJWKNZolBrSju2JjRTu4-67" edge="1">
          <mxGeometry width="50" height="50" relative="1" as="geometry">
            <mxPoint x="1016.112676056338" y="867.7152899824252" as="sourcePoint" />
            <mxPoint x="1054.1408450704225" y="825.0966608084358" as="targetPoint" />
          </mxGeometry>
        </mxCell>
        <mxCell id="vJWKNZolBrSju2JjRTu4-72" value="rid" style="ellipse;whiteSpace=wrap;html=1;fontSize=21;" parent="4eCl8P-VBhG6pIe4pRi_-1" vertex="1">
          <mxGeometry x="871.6056338028169" y="901.8101933216168" width="91.26760563380282" height="68.18980667838312" as="geometry" />
        </mxCell>
        <mxCell id="vJWKNZolBrSju2JjRTu4-73" value="" style="endArrow=none;html=1;rounded=0;exitX=0.5;exitY=0;exitDx=0;exitDy=0;entryX=0.5;entryY=1;entryDx=0;entryDy=0;fontSize=21;" parent="4eCl8P-VBhG6pIe4pRi_-1" source="vJWKNZolBrSju2JjRTu4-72" target="vJWKNZolBrSju2JjRTu4-67" edge="1">
          <mxGeometry width="50" height="50" relative="1" as="geometry">
            <mxPoint x="993.2957746478874" y="850.6678383128295" as="sourcePoint" />
            <mxPoint x="1031.3239436619717" y="808.0492091388401" as="targetPoint" />
          </mxGeometry>
        </mxCell>
        <mxCell id="vJWKNZolBrSju2JjRTu4-74" value="sid" style="ellipse;whiteSpace=wrap;html=1;fontSize=21;" parent="4eCl8P-VBhG6pIe4pRi_-1" vertex="1">
          <mxGeometry x="780.338028169014" y="876.2390158172232" width="91.26760563380282" height="68.18980667838312" as="geometry" />
        </mxCell>
        <mxCell id="vJWKNZolBrSju2JjRTu4-75" value="" style="endArrow=none;html=1;rounded=0;exitX=1;exitY=0;exitDx=0;exitDy=0;entryX=0.25;entryY=1;entryDx=0;entryDy=0;fontSize=21;" parent="4eCl8P-VBhG6pIe4pRi_-1" source="vJWKNZolBrSju2JjRTu4-74" target="vJWKNZolBrSju2JjRTu4-67" edge="1">
          <mxGeometry width="50" height="50" relative="1" as="geometry">
            <mxPoint x="833.5774647887324" y="850.6678383128295" as="sourcePoint" />
            <mxPoint x="871.6056338028169" y="808.0492091388401" as="targetPoint" />
          </mxGeometry>
        </mxCell>
        <mxCell id="vJWKNZolBrSju2JjRTu4-76" value="" style="endArrow=none;html=1;rounded=0;entryX=0;entryY=0.5;entryDx=0;entryDy=0;exitX=1;exitY=0.5;exitDx=0;exitDy=0;fontSize=21;" parent="4eCl8P-VBhG6pIe4pRi_-1" source="vJWKNZolBrSju2JjRTu4-77" target="vJWKNZolBrSju2JjRTu4-67" edge="1">
          <mxGeometry width="50" height="50" relative="1" as="geometry">
            <mxPoint x="787.9436619718309" y="850.6678383128295" as="sourcePoint" />
            <mxPoint x="825.9718309859155" y="808.0492091388401" as="targetPoint" />
          </mxGeometry>
        </mxCell>
        <mxCell id="vJWKNZolBrSju2JjRTu4-77" value="&lt;u style=&quot;font-size: 21px;&quot;&gt;id&lt;/u&gt;" style="ellipse;whiteSpace=wrap;html=1;fontSize=21;" parent="4eCl8P-VBhG6pIe4pRi_-1" vertex="1">
          <mxGeometry x="734.7042253521126" y="799.5254833040422" width="91.26760563380282" height="68.18980667838312" as="geometry" />
        </mxCell>
        <mxCell id="vJWKNZolBrSju2JjRTu4-78" value="posts" style="rounded=0;whiteSpace=wrap;html=1;fontSize=21;" parent="4eCl8P-VBhG6pIe4pRi_-1" vertex="1">
          <mxGeometry x="555.2112676056338" y="507.16168717047447" width="91.26760563380282" height="51.14235500878734" as="geometry" />
        </mxCell>
        <mxCell id="vJWKNZolBrSju2JjRTu4-79" value="" style="endArrow=none;html=1;rounded=0;exitX=1;exitY=0.5;exitDx=0;exitDy=0;fontSize=21;" parent="4eCl8P-VBhG6pIe4pRi_-1" source="vJWKNZolBrSju2JjRTu4-78" target="vJWKNZolBrSju2JjRTu4-80" edge="1">
          <mxGeometry width="50" height="50" relative="1" as="geometry">
            <mxPoint x="806.1971830985915" y="549.7803163444639" as="sourcePoint" />
            <mxPoint x="844.2253521126761" y="507.16168717047447" as="targetPoint" />
          </mxGeometry>
        </mxCell>
        <mxCell id="vJWKNZolBrSju2JjRTu4-80" value="date" style="ellipse;whiteSpace=wrap;html=1;fontSize=21;" parent="4eCl8P-VBhG6pIe4pRi_-1" vertex="1">
          <mxGeometry x="714.9295774647887" y="588.1370826010544" width="91.26760563380282" height="68.18980667838312" as="geometry" />
        </mxCell>
        <mxCell id="vJWKNZolBrSju2JjRTu4-81" value="post" style="ellipse;whiteSpace=wrap;html=1;fontSize=21;" parent="4eCl8P-VBhG6pIe4pRi_-1" vertex="1">
          <mxGeometry x="707.3239436619718" y="656.3268892794375" width="91.26760563380282" height="68.18980667838312" as="geometry" />
        </mxCell>
        <mxCell id="vJWKNZolBrSju2JjRTu4-82" value="" style="endArrow=none;html=1;rounded=0;exitX=0;exitY=0;exitDx=0;exitDy=0;entryX=0.882;entryY=1.025;entryDx=0;entryDy=0;entryPerimeter=0;fontSize=21;" parent="4eCl8P-VBhG6pIe4pRi_-1" source="vJWKNZolBrSju2JjRTu4-81" target="vJWKNZolBrSju2JjRTu4-78" edge="1">
          <mxGeometry width="50" height="50" relative="1" as="geometry">
            <mxPoint x="806.1971830985915" y="549.7803163444639" as="sourcePoint" />
            <mxPoint x="638.8732394366197" y="562.5659050966608" as="targetPoint" />
          </mxGeometry>
        </mxCell>
        <mxCell id="vJWKNZolBrSju2JjRTu4-83" value="dipsly-text" style="ellipse;whiteSpace=wrap;html=1;fontSize=21;" parent="4eCl8P-VBhG6pIe4pRi_-1" vertex="1">
          <mxGeometry x="608.4507042253521" y="673.3743409490334" width="91.26760563380282" height="68.18980667838312" as="geometry" />
        </mxCell>
        <mxCell id="vJWKNZolBrSju2JjRTu4-84" value="" style="endArrow=none;html=1;rounded=0;entryX=0.877;entryY=1.014;entryDx=0;entryDy=0;entryPerimeter=0;exitX=0.5;exitY=0;exitDx=0;exitDy=0;fontSize=21;" parent="4eCl8P-VBhG6pIe4pRi_-1" source="vJWKNZolBrSju2JjRTu4-83" target="vJWKNZolBrSju2JjRTu4-78" edge="1">
          <mxGeometry width="50" height="50" relative="1" as="geometry">
            <mxPoint x="699.7183098591549" y="566.8277680140598" as="sourcePoint" />
            <mxPoint x="737.7464788732394" y="524.2091388400703" as="targetPoint" />
          </mxGeometry>
        </mxCell>
        <mxCell id="vJWKNZolBrSju2JjRTu4-85" value="Titile" style="ellipse;whiteSpace=wrap;html=1;fontSize=21;" parent="4eCl8P-VBhG6pIe4pRi_-1" vertex="1">
          <mxGeometry x="524.7887323943662" y="639.2794376098418" width="91.26760563380282" height="68.18980667838312" as="geometry" />
        </mxCell>
        <mxCell id="vJWKNZolBrSju2JjRTu4-86" value="" style="endArrow=none;html=1;rounded=0;exitX=0.5;exitY=0;exitDx=0;exitDy=0;entryX=0.5;entryY=1;entryDx=0;entryDy=0;fontSize=21;" parent="4eCl8P-VBhG6pIe4pRi_-1" source="vJWKNZolBrSju2JjRTu4-85" target="vJWKNZolBrSju2JjRTu4-78" edge="1">
          <mxGeometry width="50" height="50" relative="1" as="geometry">
            <mxPoint x="676.9014084507043" y="549.7803163444639" as="sourcePoint" />
            <mxPoint x="714.9295774647887" y="507.16168717047447" as="targetPoint" />
          </mxGeometry>
        </mxCell>
        <mxCell id="vJWKNZolBrSju2JjRTu4-87" value="&lt;u style=&quot;font-size: 21px;&quot;&gt;id&lt;/u&gt;" style="ellipse;whiteSpace=wrap;html=1;fontSize=21;" parent="4eCl8P-VBhG6pIe4pRi_-1" vertex="1">
          <mxGeometry x="463.943661971831" y="588.1370826010544" width="91.26760563380282" height="68.18980667838312" as="geometry" />
        </mxCell>
        <mxCell id="vJWKNZolBrSju2JjRTu4-88" value="" style="endArrow=none;html=1;rounded=0;exitX=1;exitY=0;exitDx=0;exitDy=0;entryX=0.25;entryY=1;entryDx=0;entryDy=0;fontSize=21;" parent="4eCl8P-VBhG6pIe4pRi_-1" source="vJWKNZolBrSju2JjRTu4-87" target="vJWKNZolBrSju2JjRTu4-78" edge="1">
          <mxGeometry width="50" height="50" relative="1" as="geometry">
            <mxPoint x="517.1830985915493" y="549.7803163444639" as="sourcePoint" />
            <mxPoint x="555.2112676056338" y="507.16168717047447" as="targetPoint" />
          </mxGeometry>
        </mxCell>
        <mxCell id="vJWKNZolBrSju2JjRTu4-89" value="" style="endArrow=none;html=1;rounded=0;exitX=1;exitY=0.25;exitDx=0;exitDy=0;fontSize=21;" parent="4eCl8P-VBhG6pIe4pRi_-1" source="vJWKNZolBrSju2JjRTu4-78" target="vJWKNZolBrSju2JjRTu4-90" edge="1">
          <mxGeometry width="50" height="50" relative="1" as="geometry">
            <mxPoint x="501.97183098591546" y="447.49560632688923" as="sourcePoint" />
            <mxPoint x="699.7183098591549" y="421.9244288224956" as="targetPoint" />
          </mxGeometry>
        </mxCell>
        <mxCell id="vJWKNZolBrSju2JjRTu4-90" value="ppic" style="ellipse;whiteSpace=wrap;html=1;fontSize=21;" parent="4eCl8P-VBhG6pIe4pRi_-1" vertex="1">
          <mxGeometry x="726.338028169014" y="451.7574692442882" width="91.26760563380282" height="68.18980667838312" as="geometry" />
        </mxCell>
        <mxCell id="vJWKNZolBrSju2JjRTu4-91" value="" style="endArrow=none;html=1;rounded=0;exitX=0.949;exitY=-0.008;exitDx=0;exitDy=0;exitPerimeter=0;fontSize=21;" parent="4eCl8P-VBhG6pIe4pRi_-1" source="vJWKNZolBrSju2JjRTu4-78" target="vJWKNZolBrSju2JjRTu4-92" edge="1">
          <mxGeometry width="50" height="50" relative="1" as="geometry">
            <mxPoint x="501.97183098591546" y="515.6854130052724" as="sourcePoint" />
            <mxPoint x="600.8450704225352" y="430.44815465729346" as="targetPoint" />
          </mxGeometry>
        </mxCell>
        <mxCell id="vJWKNZolBrSju2JjRTu4-92" value="bip" style="ellipse;whiteSpace=wrap;html=1;fontSize=21;" parent="4eCl8P-VBhG6pIe4pRi_-1" vertex="1">
          <mxGeometry x="623.6619718309859" y="409.1388400702987" width="91.26760563380282" height="68.18980667838312" as="geometry" />
        </mxCell>
        <mxCell id="vJWKNZolBrSju2JjRTu4-93" value="" style="endArrow=none;html=1;rounded=0;exitX=0.5;exitY=0;exitDx=0;exitDy=0;fontSize=21;" parent="4eCl8P-VBhG6pIe4pRi_-1" source="vJWKNZolBrSju2JjRTu4-78" target="vJWKNZolBrSju2JjRTu4-94" edge="1">
          <mxGeometry width="50" height="50" relative="1" as="geometry">
            <mxPoint x="479.15492957746477" y="545.518453427065" as="sourcePoint" />
            <mxPoint x="524.7887323943662" y="468.80492091388396" as="targetPoint" />
          </mxGeometry>
        </mxCell>
        <mxCell id="vJWKNZolBrSju2JjRTu4-94" value="poster&lt;br style=&quot;font-size: 21px;&quot;&gt;" style="ellipse;whiteSpace=wrap;html=1;fontSize=21;" parent="4eCl8P-VBhG6pIe4pRi_-1" vertex="1">
          <mxGeometry x="585.6338028169014" y="340.94903339191563" width="91.26760563380282" height="68.18980667838312" as="geometry" />
        </mxCell>
        <mxCell id="vJWKNZolBrSju2JjRTu4-95" value="" style="endArrow=none;html=1;rounded=0;exitX=0.25;exitY=0;exitDx=0;exitDy=0;fontSize=21;" parent="4eCl8P-VBhG6pIe4pRi_-1" source="vJWKNZolBrSju2JjRTu4-78" target="vJWKNZolBrSju2JjRTu4-96" edge="1">
          <mxGeometry width="50" height="50" relative="1" as="geometry">
            <mxPoint x="501.97183098591546" y="524.2091388400703" as="sourcePoint" />
            <mxPoint x="425.9154929577465" y="485.8523725834798" as="targetPoint" />
          </mxGeometry>
        </mxCell>
        <mxCell id="vJWKNZolBrSju2JjRTu4-96" value="like&lt;br style=&quot;font-size: 21px;&quot;&gt;" style="ellipse;whiteSpace=wrap;html=1;fontSize=21;" parent="4eCl8P-VBhG6pIe4pRi_-1" vertex="1">
          <mxGeometry x="494.36619718309856" y="357.9964850615114" width="91.26760563380282" height="68.18980667838312" as="geometry" />
        </mxCell>
        <mxCell id="vJWKNZolBrSju2JjRTu4-97" value="" style="endArrow=none;html=1;rounded=0;exitX=0;exitY=0.25;exitDx=0;exitDy=0;fontSize=21;" parent="4eCl8P-VBhG6pIe4pRi_-1" source="vJWKNZolBrSju2JjRTu4-78" target="vJWKNZolBrSju2JjRTu4-98" edge="1">
          <mxGeometry width="50" height="50" relative="1" as="geometry">
            <mxPoint x="524.7887323943662" y="583.8752196836555" as="sourcePoint" />
            <mxPoint x="372.67605633802816" y="562.5659050966608" as="targetPoint" />
          </mxGeometry>
        </mxCell>
        <mxCell id="vJWKNZolBrSju2JjRTu4-98" value="picture" style="ellipse;whiteSpace=wrap;html=1;fontSize=21;" parent="4eCl8P-VBhG6pIe4pRi_-1" vertex="1">
          <mxGeometry x="410.70422535211264" y="392.09138840070295" width="91.26760563380282" height="68.18980667838312" as="geometry" />
        </mxCell>
        <mxCell id="vJWKNZolBrSju2JjRTu4-99" value="requests" style="rhombus;whiteSpace=wrap;html=1;fontSize=21;" parent="4eCl8P-VBhG6pIe4pRi_-1" vertex="1">
          <mxGeometry x="304.22535211267603" y="622.231985940246" width="91.26760563380282" height="68.18980667838312" as="geometry" />
        </mxCell>
        <mxCell id="vJWKNZolBrSju2JjRTu4-100" value="" style="endArrow=none;html=1;rounded=0;exitX=1;exitY=0.5;exitDx=0;exitDy=0;entryX=0;entryY=0.5;entryDx=0;entryDy=0;fontSize=21;" parent="4eCl8P-VBhG6pIe4pRi_-1" source="vJWKNZolBrSju2JjRTu4-99" target="vJWKNZolBrSju2JjRTu4-78" edge="1">
          <mxGeometry width="50" height="50" relative="1" as="geometry">
            <mxPoint x="433.5211267605634" y="656.3268892794375" as="sourcePoint" />
            <mxPoint x="471.5492957746479" y="613.7082601054482" as="targetPoint" />
          </mxGeometry>
        </mxCell>
        <mxCell id="vJWKNZolBrSju2JjRTu4-101" value="" style="endArrow=none;html=1;rounded=0;exitX=0.5;exitY=0;exitDx=0;exitDy=0;entryX=0;entryY=0.5;entryDx=0;entryDy=0;fontSize=21;" parent="4eCl8P-VBhG6pIe4pRi_-1" source="vJWKNZolBrSju2JjRTu4-54" target="vJWKNZolBrSju2JjRTu4-99" edge="1">
          <mxGeometry width="50" height="50" relative="1" as="geometry">
            <mxPoint x="433.5211267605634" y="656.3268892794375" as="sourcePoint" />
            <mxPoint x="471.5492957746479" y="613.7082601054482" as="targetPoint" />
          </mxGeometry>
        </mxCell>
        <mxCell id="vJWKNZolBrSju2JjRTu4-102" value="requests" style="rhombus;whiteSpace=wrap;html=1;fontSize=21;" parent="4eCl8P-VBhG6pIe4pRi_-1" vertex="1">
          <mxGeometry x="281.40845070422534" y="392.09138840070295" width="91.26760563380282" height="68.18980667838312" as="geometry" />
        </mxCell>
        <mxCell id="vJWKNZolBrSju2JjRTu4-103" value="" style="endArrow=none;html=1;rounded=0;exitX=1;exitY=0.5;exitDx=0;exitDy=0;entryX=0;entryY=0.5;entryDx=0;entryDy=0;fontSize=21;" parent="4eCl8P-VBhG6pIe4pRi_-1" source="vJWKNZolBrSju2JjRTu4-32" target="vJWKNZolBrSju2JjRTu4-102" edge="1">
          <mxGeometry width="50" height="50" relative="1" as="geometry">
            <mxPoint x="365.07042253521126" y="528.4710017574693" as="sourcePoint" />
            <mxPoint x="403.09859154929575" y="485.8523725834798" as="targetPoint" />
          </mxGeometry>
        </mxCell>
        <mxCell id="vJWKNZolBrSju2JjRTu4-105" value="" style="endArrow=none;html=1;rounded=0;exitX=1;exitY=0.5;exitDx=0;exitDy=0;entryX=0;entryY=0.5;entryDx=0;entryDy=0;fontSize=21;" parent="4eCl8P-VBhG6pIe4pRi_-1" source="vJWKNZolBrSju2JjRTu4-102" target="vJWKNZolBrSju2JjRTu4-78" edge="1">
          <mxGeometry width="50" height="50" relative="1" as="geometry">
            <mxPoint x="517.1830985915493" y="443.23374340949033" as="sourcePoint" />
            <mxPoint x="555.2112676056338" y="400.61511423550087" as="targetPoint" />
          </mxGeometry>
        </mxCell>
        <mxCell id="vJWKNZolBrSju2JjRTu4-108" value="requests" style="rhombus;whiteSpace=wrap;html=1;fontSize=21;" parent="4eCl8P-VBhG6pIe4pRi_-1" vertex="1">
          <mxGeometry x="1041.9718309859154" y="375.0439367311072" width="91.26760563380282" height="68.18980667838312" as="geometry" />
        </mxCell>
        <mxCell id="vJWKNZolBrSju2JjRTu4-109" value="requests" style="rhombus;whiteSpace=wrap;html=1;fontSize=21;" parent="4eCl8P-VBhG6pIe4pRi_-1" vertex="1">
          <mxGeometry x="859.4366197183099" y="579.6133567662565" width="91.26760563380282" height="68.18980667838312" as="geometry" />
        </mxCell>
        <mxCell id="vJWKNZolBrSju2JjRTu4-111" value="" style="endArrow=none;html=1;rounded=0;entryX=0;entryY=0.5;entryDx=0;entryDy=0;fontSize=21;" parent="4eCl8P-VBhG6pIe4pRi_-1" source="vJWKNZolBrSju2JjRTu4-15" target="vJWKNZolBrSju2JjRTu4-109" edge="1">
          <mxGeometry width="50" height="50" relative="1" as="geometry">
            <mxPoint x="707.3239436619718" y="562.5659050966608" as="sourcePoint" />
            <mxPoint x="745.3521126760563" y="519.9472759226713" as="targetPoint" />
          </mxGeometry>
        </mxCell>
        <mxCell id="vJWKNZolBrSju2JjRTu4-113" value="" style="endArrow=none;html=1;rounded=0;entryX=0.5;entryY=0;entryDx=0;entryDy=0;exitX=0.5;exitY=1;exitDx=0;exitDy=0;fontSize=21;" parent="4eCl8P-VBhG6pIe4pRi_-1" source="vJWKNZolBrSju2JjRTu4-108" target="vJWKNZolBrSju2JjRTu4-43" edge="1">
          <mxGeometry width="50" height="50" relative="1" as="geometry">
            <mxPoint x="752.9577464788732" y="434.7100175746924" as="sourcePoint" />
            <mxPoint x="790.9859154929577" y="392.09138840070295" as="targetPoint" />
          </mxGeometry>
        </mxCell>
        <mxCell id="vJWKNZolBrSju2JjRTu4-114" value="" style="endArrow=none;html=1;rounded=0;entryX=0.5;entryY=1;entryDx=0;entryDy=0;exitX=0.5;exitY=0;exitDx=0;exitDy=0;fontSize=21;" parent="4eCl8P-VBhG6pIe4pRi_-1" source="vJWKNZolBrSju2JjRTu4-67" target="vJWKNZolBrSju2JjRTu4-109" edge="1">
          <mxGeometry width="50" height="50" relative="1" as="geometry">
            <mxPoint x="593.2394366197183" y="579.6133567662565" as="sourcePoint" />
            <mxPoint x="631.2676056338028" y="536.994727592267" as="targetPoint" />
          </mxGeometry>
        </mxCell>
        <mxCell id="vJWKNZolBrSju2JjRTu4-116" value="creates" style="rhombus;whiteSpace=wrap;html=1;fontSize=21;" parent="4eCl8P-VBhG6pIe4pRi_-1" vertex="1">
          <mxGeometry x="562.8169014084507" y="85.23725834797891" width="91.26760563380282" height="68.18980667838312" as="geometry" />
        </mxCell>
        <mxCell id="vJWKNZolBrSju2JjRTu4-117" value="" style="endArrow=none;html=1;rounded=0;exitX=1;exitY=0.5;exitDx=0;exitDy=0;entryX=0;entryY=0.5;entryDx=0;entryDy=0;fontSize=21;" parent="4eCl8P-VBhG6pIe4pRi_-1" source="vJWKNZolBrSju2JjRTu4-1" target="vJWKNZolBrSju2JjRTu4-116" edge="1">
          <mxGeometry width="50" height="50" relative="1" as="geometry">
            <mxPoint x="250.98591549295773" y="161.95079086115993" as="sourcePoint" />
            <mxPoint x="289.01408450704224" y="119.33216168717047" as="targetPoint" />
          </mxGeometry>
        </mxCell>
        <mxCell id="hD1TAkFpua0uFgt2I9aI-4" value="1" style="edgeLabel;html=1;align=center;verticalAlign=middle;resizable=0;points=[];" parent="vJWKNZolBrSju2JjRTu4-117" vertex="1" connectable="0">
          <mxGeometry x="-0.8014" y="-1" relative="1" as="geometry">
            <mxPoint y="-11" as="offset" />
          </mxGeometry>
        </mxCell>
        <mxCell id="vJWKNZolBrSju2JjRTu4-118" value="" style="endArrow=none;html=1;rounded=0;exitX=1;exitY=0.5;exitDx=0;exitDy=0;entryX=0;entryY=0.25;entryDx=0;entryDy=0;fontSize=21;" parent="4eCl8P-VBhG6pIe4pRi_-1" source="vJWKNZolBrSju2JjRTu4-116" target="vJWKNZolBrSju2JjRTu4-15" edge="1">
          <mxGeometry width="50" height="50" relative="1" as="geometry">
            <mxPoint x="661.6901408450705" y="161.95079086115993" as="sourcePoint" />
            <mxPoint x="699.7183098591549" y="119.33216168717047" as="targetPoint" />
          </mxGeometry>
        </mxCell>
        <mxCell id="vJWKNZolBrSju2JjRTu4-119" value="makes" style="rhombus;whiteSpace=wrap;html=1;fontSize=21;" parent="4eCl8P-VBhG6pIe4pRi_-1" vertex="1">
          <mxGeometry x="752.9577464788732" y="289.80667838312826" width="91.26760563380282" height="68.18980667838312" as="geometry" />
        </mxCell>
        <mxCell id="vJWKNZolBrSju2JjRTu4-120" value="" style="endArrow=none;html=1;rounded=0;entryX=0;entryY=0.5;entryDx=0;entryDy=0;exitX=0.5;exitY=0;exitDx=0;exitDy=0;fontSize=21;" parent="4eCl8P-VBhG6pIe4pRi_-1" source="vJWKNZolBrSju2JjRTu4-119" target="vJWKNZolBrSju2JjRTu4-15" edge="1">
          <mxGeometry width="50" height="50" relative="1" as="geometry">
            <mxPoint x="737.7464788732394" y="383.5676625659051" as="sourcePoint" />
            <mxPoint x="965.9154929577464" y="170.47451669595782" as="targetPoint" />
            <Array as="points">
              <mxPoint x="867.0422535211268" y="213.09314586994728" />
            </Array>
          </mxGeometry>
        </mxCell>
        <mxCell id="vJWKNZolBrSju2JjRTu4-121" value="" style="endArrow=none;html=1;rounded=0;entryX=0.5;entryY=1;entryDx=0;entryDy=0;exitX=1.005;exitY=0.141;exitDx=0;exitDy=0;exitPerimeter=0;fontSize=21;" parent="4eCl8P-VBhG6pIe4pRi_-1" source="vJWKNZolBrSju2JjRTu4-78" target="vJWKNZolBrSju2JjRTu4-119" edge="1">
          <mxGeometry width="50" height="50" relative="1" as="geometry">
            <mxPoint x="669.2957746478874" y="460.2811950790861" as="sourcePoint" />
            <mxPoint x="707.3239436619718" y="417.66256590509664" as="targetPoint" />
            <Array as="points">
              <mxPoint x="798.5915492957746" y="400.61511423550087" />
            </Array>
          </mxGeometry>
        </mxCell>
        <mxCell id="hD1TAkFpua0uFgt2I9aI-1" value="1" style="text;html=1;align=center;verticalAlign=middle;resizable=0;points=[];autosize=1;strokeColor=none;fillColor=none;fontSize=21;" parent="4eCl8P-VBhG6pIe4pRi_-1" vertex="1">
          <mxGeometry x="912.6760563380282" y="153.42706502636204" width="40" height="40" as="geometry" />
        </mxCell>
        <mxCell id="hD1TAkFpua0uFgt2I9aI-2" value="m&lt;br style=&quot;font-size: 21px;&quot;&gt;" style="text;html=1;align=center;verticalAlign=middle;resizable=0;points=[];autosize=1;strokeColor=none;fillColor=none;fontSize=21;" parent="4eCl8P-VBhG6pIe4pRi_-1" vertex="1">
          <mxGeometry x="722.5352112676056" y="421.9244288224956" width="40" height="40" as="geometry" />
        </mxCell>
        <mxCell id="hD1TAkFpua0uFgt2I9aI-5" value="1" style="text;html=1;align=center;verticalAlign=middle;resizable=0;points=[];autosize=1;strokeColor=none;fillColor=none;fontSize=21;" parent="4eCl8P-VBhG6pIe4pRi_-1" vertex="1">
          <mxGeometry x="886.056338028169" y="115.07029876977153" width="40" height="40" as="geometry" />
        </mxCell>
        <mxCell id="hD1TAkFpua0uFgt2I9aI-6" value="1" style="text;html=1;align=center;verticalAlign=middle;resizable=0;points=[];autosize=1;strokeColor=none;fillColor=none;fontSize=21;" parent="4eCl8P-VBhG6pIe4pRi_-1" vertex="1">
          <mxGeometry x="501.97183098591546" y="505.45694200351494" width="40" height="40" as="geometry" />
        </mxCell>
        <mxCell id="hD1TAkFpua0uFgt2I9aI-7" value="m" style="text;html=1;align=center;verticalAlign=middle;resizable=0;points=[];autosize=1;strokeColor=none;fillColor=none;fontSize=21;" parent="4eCl8P-VBhG6pIe4pRi_-1" vertex="1">
          <mxGeometry x="220.56338028169014" y="394.6485061511423" width="40" height="40" as="geometry" />
        </mxCell>
        <mxCell id="hD1TAkFpua0uFgt2I9aI-8" value="1&lt;br style=&quot;font-size: 21px;&quot;&gt;" style="text;html=1;align=center;verticalAlign=middle;resizable=0;points=[];autosize=1;strokeColor=none;fillColor=none;fontSize=21;" parent="4eCl8P-VBhG6pIe4pRi_-1" vertex="1">
          <mxGeometry x="509.57746478873236" y="531.0281195079086" width="40" height="40" as="geometry" />
        </mxCell>
        <mxCell id="hD1TAkFpua0uFgt2I9aI-10" value="m" style="text;html=1;align=center;verticalAlign=middle;resizable=0;points=[];autosize=1;strokeColor=none;fillColor=none;fontSize=21;" parent="4eCl8P-VBhG6pIe4pRi_-1" vertex="1">
          <mxGeometry x="174.92957746478874" y="744.1212653778558" width="40" height="40" as="geometry" />
        </mxCell>
        <mxCell id="hD1TAkFpua0uFgt2I9aI-13" value="" style="endArrow=none;html=1;rounded=0;entryX=0.5;entryY=1;entryDx=0;entryDy=0;exitX=0;exitY=0;exitDx=0;exitDy=0;fontSize=21;" parent="4eCl8P-VBhG6pIe4pRi_-1" source="vJWKNZolBrSju2JjRTu4-108" target="vJWKNZolBrSju2JjRTu4-15" edge="1">
          <mxGeometry width="50" height="50" relative="1" as="geometry">
            <mxPoint x="996.338028169014" y="502.89982425307556" as="sourcePoint" />
            <mxPoint x="1034.3661971830986" y="460.2811950790861" as="targetPoint" />
          </mxGeometry>
        </mxCell>
        <mxCell id="hD1TAkFpua0uFgt2I9aI-14" value="1" style="edgeLabel;html=1;align=center;verticalAlign=middle;resizable=0;points=[];" parent="hD1TAkFpua0uFgt2I9aI-13" vertex="1" connectable="0">
          <mxGeometry x="0.7474" relative="1" as="geometry">
            <mxPoint x="-8" y="10" as="offset" />
          </mxGeometry>
        </mxCell>
        <mxCell id="hD1TAkFpua0uFgt2I9aI-15" value="m" style="text;html=1;align=center;verticalAlign=middle;resizable=0;points=[];autosize=1;strokeColor=none;fillColor=none;fontSize=21;" parent="4eCl8P-VBhG6pIe4pRi_-1" vertex="1">
          <mxGeometry x="1121.8309859154929" y="447.49560632688923" width="40" height="40" as="geometry" />
        </mxCell>
        <mxCell id="hD1TAkFpua0uFgt2I9aI-16" value="1" style="text;html=1;align=center;verticalAlign=middle;resizable=0;points=[];autosize=1;strokeColor=none;fillColor=none;fontSize=21;" parent="4eCl8P-VBhG6pIe4pRi_-1" vertex="1">
          <mxGeometry x="984.9295774647887" y="230.14059753954305" width="40" height="40" as="geometry" />
        </mxCell>
        <mxCell id="hD1TAkFpua0uFgt2I9aI-17" value="m" style="text;html=1;align=center;verticalAlign=middle;resizable=0;points=[];autosize=1;strokeColor=none;fillColor=none;fontSize=21;" parent="4eCl8P-VBhG6pIe4pRi_-1" vertex="1">
          <mxGeometry x="897.4647887323944" y="727.0738137082601" width="40" height="40" as="geometry" />
        </mxCell>
      </root>
    </mxGraphModel>
  </diagram>
</mxfile>
